<svg xmlns="http://www.w3.org/2000/svg" version="1.1" xmlns:xlink="http://www.w3.org/1999/xlink" xmlns:svgjs="http://svgjs.dev/svgjs" width="2000" height="1500" viewBox="0 0 2000 1500"><rect width="2000" height="1500" fill="#ff5e00"></rect><g transform="matrix(0.75,0,0,0.75,249.090909090909,282.7536437246963)"><svg viewBox="0 0 396 247" data-background-color="#ff5e00" preserveAspectRatio="xMidYMid meet" height="1247" width="2000" xmlns="http://www.w3.org/2000/svg" xmlns:xlink="http://www.w3.org/1999/xlink"><g id="tight-bounds" transform="matrix(1,0,0,1,0.2400000000000091,-0.09999999999999432)"><svg viewBox="0 0 395.52 247.2" height="247.2" width="395.52"><g><svg></svg></g><g><svg viewBox="0 0 395.52 247.2" height="247.2" width="395.52"><g transform="matrix(1,0,0,1,75.54432,56.51706539929879)"><svg viewBox="0 0 244.43135999999998 134.16586920140242" height="134.16586920140242" width="244.43135999999998"><g><svg viewBox="0 0 244.43135999999998 134.16586920140242" height="134.16586920140242" width="244.43135999999998"><g><svg viewBox="0 0 244.43135999999998 134.16586920140242" height="134.16586920140242" width="244.43135999999998"><g><svg viewBox="0 0 244.43135999999998 134.16586920140242" height="134.16586920140242" width="244.43135999999998"><g id="textblocktransform"><svg viewBox="0 0 244.43135999999998 134.16586920140242" height="134.16586920140242" width="244.43135999999998" id="textblock"><g><svg viewBox="0 0 244.43135999999998 134.16586920140242" height="134.16586920140242" width="244.43135999999998"><g transform="matrix(1,0,0,1,0,0)"><svg width="244.43135999999998" viewBox="0.1 -34.4 62.67 34.4" height="134.16586920140242" data-palette-color="#faf1cb"><path d="M24.56-10.06L8.89-10.06 4.93 0 0.1 0 14.14-34.4 19.43-34.4 33.25 0 28.49 0 24.56-10.06ZM16.72-30.88L16.72-30.88Q16.31-29.52 15.73-27.84 15.16-26.17 14.67-24.9L14.67-24.9 10.3-13.7 23.17-13.7 18.75-25.05Q18.41-25.9 17.85-27.47 17.29-29.03 16.72-30.88ZM57.86-34.4L62.77-34.4 48.73 0 43.89 0 29.86-34.4 34.76-34.4 44.28-10.18Q44.87-8.69 45.35-7.15 45.82-5.62 46.34-4.1L46.34-4.1Q46.82-5.62 47.36-7.28 47.9-8.94 48.39-10.18L48.39-10.18 57.86-34.4Z" opacity="1" transform="matrix(1,0,0,1,0,0)" fill="#faf1cb" class="wordmark-text-0" data-fill-palette-color="primary" id="text-0"></path></svg></g></svg></g></svg></g></svg></g></svg></g></svg></g></svg></g><path d="M147.604 50.517L147.604 5.171 384.462 5.171 384.462 242.029 147.604 242.029 147.604 196.683 159.703 196.683 159.703 229.93 372.363 229.93 372.363 17.27 159.703 17.27 159.703 50.517Z" fill="#faf1cb" stroke="transparent" data-fill-palette-color="tertiary"></path></svg></g><defs></defs></svg><rect width="395.52" height="247.2" fill="none" stroke="none" visibility="hidden"></rect></g></svg></g></svg>